<?xml version="1.0" standalone="no"?>
<!DOCTYPE svg PUBLIC "-//W3C//DTD SVG 20010904//EN"
 "http://www.w3.org/TR/2001/REC-SVG-20010904/DTD/svg10.dtd">
<svg version="1.0" xmlns="http://www.w3.org/2000/svg"
 width="200.000000pt" height="200.000000pt" viewBox="0 0 200.000000 200.000000"
 preserveAspectRatio="xMidYMid meet">
<metadata>
Created by potrace 1.16, written by Peter Selinger 2001-2019
</metadata>
<g transform="translate(0.000000,200.000000) scale(0.085106,-0.093458)"
fill="#0d9488" stroke="none">
<path d="M1281 2119 c-2 -34 -72 -156 -127 -222 -31 -38 -120 -137 -198 -220
-195 -208 -261 -289 -301 -370 -32 -63 -35 -77 -34 -151 1 -44 4 -92 8 -106 7
-23 8 -22 15 14 16 82 61 181 117 256 31 43 130 153 219 245 269 279 321 354
319 465 -1 51 -16 125 -18 89z"/>
<path d="M1275 1817 c-43 -90 -108 -171 -281 -352 -84 -88 -175 -188 -202
-222 -131 -163 -167 -351 -90 -462 11 -15 12 -6 9 60 -6 153 52 251 297 503
232 238 308 359 300 484 l-3 51 -30 -62z"/>
<path d="M1286 1573 c-27 -66 -118 -182 -249 -319 -226 -238 -277 -317 -285
-444 -5 -84 7 -124 52 -177 38 -45 49 -41 26 10 -40 87 -17 182 69 297 23 30
92 110 152 177 222 245 269 320 269 430 0 34 -3 64 -8 67 -4 2 -16 -16 -26
-41z"/>
<path d="M1540 1526 c0 -3 10 -21 22 -42 30 -50 28 -106 -7 -174 -28 -56 -60
-99 -181 -245 -91 -110 -117 -168 -122 -275 l-4 -85 39 75 c45 88 68 120 186
254 145 167 166 206 167 313 0 70 -11 107 -43 141 -22 24 -57 47 -57 38z"/>
<path d="M1688 1295 c7 -106 -35 -178 -228 -395 -165 -185 -200 -248 -199
-360 l0 -75 29 62 c41 90 74 133 209 277 136 145 187 216 213 295 24 72 23
164 -2 219 -10 23 -21 42 -22 42 -2 0 -2 -29 0 -65z"/>
<path d="M1747 1065 c-22 -108 -80 -197 -236 -359 -165 -171 -210 -232 -235
-313 -7 -21 -4 -23 31 -23 33 0 43 6 68 39 17 21 84 94 149 162 194 202 239
287 234 444 -3 77 -4 84 -11 50z"/>
<path d="M855 489 c-38 -5 -110 -16 -160 -24 -49 -9 -154 -27 -233 -40 -79
-14 -156 -25 -171 -25 -25 0 -41 -20 -154 -190 -70 -104 -127 -192 -127 -194
0 -5 17 -1 330 60 344 67 389 74 525 74 127 0 171 -15 223 -74 l32 -37 0 121
0 120 -71 0 -70 0 3 43 3 42 68 3 68 3 -6 32 c-10 45 -39 73 -90 86 -49 12
-69 12 -170 0z"/>
<path d="M1434 383 c-111 -109 -166 -185 -195 -270 -24 -71 -26 -112 -3 -68
24 46 45 66 92 87 98 44 231 35 607 -39 202 -39 386 -72 407 -73 12 0 -202
303 -245 348 -23 24 -51 45 -62 47 -22 5 -294 40 -390 50 -33 3 -72 8 -86 11
-23 4 -40 -9 -125 -93z"/>
</g>
</svg>
